{"title":"Jack.Ryan.Shadow.Recruit.2014.HDRip.XviD.AC3-EVO","uid":10100064,"size":1607006021,"categoryP":"video","categoryS":"movies","magnet":"?xt=urn:btih:4ab44f6942df791f433ced77ae4818ff5a6a299a&amp;dn=Jack.Ryan.Shadow.Recruit.2014.HDRip.XviD.AC3-EVO&amp;tr=udp%3A%2F%2Ftracker.openbittorrent.com%3A80&amp;tr=udp%3A%2F%2Fopen.demonii.com%3A1337&amp;tr=udp%3A%2F%2Ftracker.coppersurfer.tk%3A6969&amp;tr=udp%3A%2F%2Fexodus.desync.com%3A6969","seeders":1,"leechers":0,"uploader":"xxxlavalxxx","files":-1,"time":1399337219,"description":" &lt;a href=&quot;\nhttp://www.imdb.com/title/tt1205537/&quot; rel=&quot;nofollow&quot; target=&quot;_NEW&quot;&gt;\nhttp://www.imdb.com/title/tt1205537/&lt;/a&gt;\n\n\nJack Ryan, as a young covert CIA analyst, uncovers a Russian plot to crash the U.S. economy with a terrorist attack.\n\nDirector: Kenneth Branagh\nWriters: Adam Cozad, David Koepp\nStars: Chris Pine, Kevin Costner, Keira Knightley\nGenres: Action | Crime | Mystery | Thriller\nCountry: USA | Russia\nLanguage: English | Russian\n\n\nGeneral\nComplete name                            : Jack.Ryan.Shadow.Recruit.2014.HDRip.XviD.AC3-EVO/Jack.Ryan.Shadow.Recruit.2014.HDRip.XviD.AC3-EVO.avi\nFormat                                   : AVI\nFormat/Info                              : Audio Video Interleave\nFile size                                : 1.47 GiB\nDuration                                 : 1h 45mn\nOverall bit rate                         : 1 983 Kbps\nWriting library                          : VirtualDub build 32593/release\n\nVideo\nID                                       : 0\nFormat                                   : MPEG-4 Visual\nFormat profile                           : Advanced Simple@L5\nFormat settings, BVOP                    : 2\nFormat settings, QPel                    : No\nFormat settings, GMC                     : No warppoints\nFormat settings, Matrix                  : Default (H.263)\nMuxing mode                              : Packed bitstream\nCodec ID                                 : XVID\nCodec ID/Hint                            : XviD\nDuration                                 : 1h 45mn\nBit rate                                 : 1 590 Kbps\nWidth                                    : 720 pixels\nHeight                                   : 304 pixels\nDisplay aspect ratio                     : 2.35:1\nFrame rate                               : 23.976 fps\nColor space                              : YUV\nChroma subsampling                       : 4:2:0\nBit depth                                : 8 bits\nScan type                                : Progressive\nCompression mode                         : Lossy\nBits/(Pixel*Frame)                       : 0.303\nStream size                              : 1.18 GiB (80%)\nWriting library                          : XviD 64\n\nAudio\nID                                       : 1\nFormat                                   : AC-3\nFormat/Info                              : Audio Coding 3\nMode extension                           : CM (complete main)\nCodec ID                                 : 2000\nDuration                                 : 1h 45mn\nBit rate mode                            : Constant\nBit rate                                 : 384 Kbps\nChannel(s)                               : 6 channels\nChannel positions                        : Front: L C R, Side: L R, LFE\nSampling rate                            : 48.0 KHz\nBit depth                                : 16 bits\nCompression mode                         : Lossy\nStream size                              : 291 MiB (19%)\nAlignment                                : Aligned on interleaves\nInterleave, duration                     : 42 ms (1.00 video frame)\nInterleave, preload duration             : 512 ms\n\n\nscreens\n &lt;a href=&quot;\nhttp://i.imgur.com/6rlc3FQ.jpg&quot; rel=&quot;nofollow&quot; target=&quot;_NEW&quot;&gt;\nhttp://i.imgur.com/6rlc3FQ.jpg&lt;/a&gt; &lt;a href=&quot;\nhttp://i.imgur.com/Hvc3LlK.jpg&quot; rel=&quot;nofollow&quot; target=&quot;_NEW&quot;&gt;\nhttp://i.imgur.com/Hvc3LlK.jpg&lt;/a&gt; &lt;a href=&quot;\nhttp://i.imgur.com/EXceg5T.jpg&quot; rel=&quot;nofollow&quot; target=&quot;_NEW&quot;&gt;\nhttp://i.imgur.com/EXceg5T.jpg&lt;/a&gt;","torrent":{"xt":"urn:btih:4ab44f6942df791f433ced77ae4818ff5a6a299a","amp;dn":"Jack.Ryan.Shadow.Recruit.2014.HDRip.XviD.AC3-EVO","amp;tr":["udp%3A%2F%2Ftracker.openbittorrent.com%3A80","udp%3A%2F%2Fopen.demonii.com%3A1337","udp%3A%2F%2Ftracker.coppersurfer.tk%3A6969","udp%3A%2F%2Fexodus.desync.com%3A6969"],"infoHash":"4ab44f6942df791f433ced77ae4818ff5a6a299a","infoHashBuffer":{"type":"Buffer","data":[74,180,79,105,66,223,121,31,67,60,237,119,174,72,24,255,90,106,41,154]},"announce":[],"urlList":[]}}